<svg width="40" height="40" viewBox="0 0 40 40" fill="none" xmlns="http://www.w3.org/2000/svg">
<path id="Vector" d="M26.6667 40L13.3333 35.3333L3 39.3333C2.25926 39.6296 1.57407 39.5467 0.944444 39.0844C0.314815 38.6222 0 38.0015 0 37.2222V6.11111C0 5.62963 0.139259 5.2037 0.417778 4.83333C0.696296 4.46296 1.07556 4.18519 1.55556 4L13.3333 0L26.6667 4.66667L37 0.666667C37.7407 0.37037 38.4259 0.454074 39.0556 0.917778C39.6852 1.38148 40 2.00148 40 2.77778V33.8889C40 34.3704 39.8615 34.7963 39.5844 35.1667C39.3074 35.537 38.9274 35.8148 38.4444 36L26.6667 40ZM24.4444 34.5556V8.55556L15.5556 5.44444V31.4444L24.4444 34.5556ZM28.8889 34.5556L35.5556 32.3333V6L28.8889 8.55556V34.5556ZM4.44444 34L11.1111 31.4444V5.44444L4.44444 7.66667V34Z" fill="#D69B3C"/>
</svg>
