<svg width="37" height="45" viewBox="0 0 37 45" fill="none" xmlns="http://www.w3.org/2000/svg">
<path d="M2 18.4C2 10.6694 2 6.80315 4.4026 4.4026C6.8052 2.00205 10.6694 2 18.4 2C26.1305 2 29.9968 2 32.3974 4.4026C34.7979 6.8052 34.8 10.6694 34.8 18.4V24.55C34.8 32.2805 34.8 36.1468 32.3974 38.5474C29.9948 40.9479 26.1305 40.95 18.4 40.95C10.6694 40.95 6.80315 40.95 4.4026 38.5474C2.00205 36.1448 2 32.2805 2 24.55V18.4Z" stroke="#D69B3C" stroke-width="4"/>
<path opacity="0.5" d="M28.6499 40.95V43H26.5999V40.95M10.1999 40.95V43H8.1499V40.95" stroke="#D69B3C" stroke-width="4" stroke-linejoin="round"/>
<path opacity="0.5" d="M34.8 21.4751H2" stroke="#D69B3C" stroke-width="4"/>
<path d="M28.6499 12.25V16.35M28.6499 26.6V30.7" stroke="#D69B3C" stroke-width="4" stroke-linecap="round"/>
</svg>
