<svg width="42" height="42" viewBox="0 0 42 42" fill="none" xmlns="http://www.w3.org/2000/svg">
<path id="Vector" d="M29.4 42C25.9 42 22.925 40.775 20.475 38.325C18.025 35.875 16.8 32.9 16.8 29.4C16.8 25.9 18.025 22.925 20.475 20.475C22.925 18.025 25.9 16.8 29.4 16.8C32.9 16.8 35.875 18.025 38.325 20.475C40.775 22.925 42 25.9 42 29.4C42 32.9 40.775 35.875 38.325 38.325C35.875 40.775 32.9 42 29.4 42ZM29.4 37.8C31.71 37.8 33.6875 36.9775 35.3325 35.3325C36.9775 33.6875 37.8 31.71 37.8 29.4C37.8 27.09 36.9775 25.1125 35.3325 23.4675C33.6875 21.8225 31.71 21 29.4 21C27.09 21 25.1125 21.8225 23.4675 23.4675C21.8225 25.1125 21 27.09 21 29.4C21 31.71 21.8225 33.6875 23.4675 35.3325C25.1125 36.9775 27.09 37.8 29.4 37.8ZM4.2 37.8C3.045 37.8 2.0566 37.3891 1.2348 36.5673C0.413 35.7455 0.0014 34.7564 0 33.6V17.64C0 17.36 0.0266002 17.08 0.0798002 16.8C0.133 16.52 0.2114 16.24 0.315 15.96L4.515 6.3H4.2C3.605 6.3 3.1066 6.0984 2.7048 5.6952C2.303 5.292 2.1014 4.7936 2.1 4.2V2.1C2.1 1.505 2.3016 1.0066 2.7048 0.6048C3.108 0.203 3.6064 0.0014 4.2 0H18.9C19.495 0 19.9941 0.2016 20.3973 0.6048C20.8005 1.008 21.0014 1.5064 21 2.1V4.2C21 4.795 20.7984 5.2941 20.3952 5.6973C19.992 6.1005 19.4936 6.3014 18.9 6.3H18.585L22.05 14.28C21.385 14.63 20.755 14.9975 20.16 15.3825C19.565 15.7675 19.005 16.205 18.48 16.695L14.07 6.3H9.03L4.2 17.64V33.6H13.125C13.3 34.335 13.5359 35.0616 13.8327 35.7798C14.1295 36.498 14.4886 37.1714 14.91 37.8H4.2ZM29.4 14.7C27.93 14.7 26.6875 14.1925 25.6725 13.1775C24.6575 12.1625 24.15 10.92 24.15 9.45C24.15 7.98 24.6575 6.7375 25.6725 5.7225C26.6875 4.7075 27.93 4.2 29.4 4.2V14.7ZM29.4 14.7C29.4 13.23 29.9075 11.9875 30.9225 10.9725C31.9375 9.9575 33.18 9.45 34.65 9.45C36.12 9.45 37.3625 9.9575 38.3775 10.9725C39.3925 11.9875 39.9 13.23 39.9 14.7H29.4Z" fill="#D69B3C"/>
</svg>
