<svg width="39" height="39" viewBox="0 0 39 39" fill="none" xmlns="http://www.w3.org/2000/svg">
<g id="Group">
<path id="Vector" d="M2 32.625C2 30.3044 2.92187 28.0788 4.56282 26.4378C6.20376 24.7969 8.42936 23.875 10.75 23.875H28.25C30.5706 23.875 32.7962 24.7969 34.4372 26.4378C36.0781 28.0788 37 30.3044 37 32.625C37 33.7853 36.5391 34.8981 35.7186 35.7186C34.8981 36.5391 33.7853 37 32.625 37H6.375C5.21468 37 4.10188 36.5391 3.28141 35.7186C2.46094 34.8981 2 33.7853 2 32.625Z" stroke="#D69B3C" stroke-width="4" stroke-linejoin="round"/>
<path id="Vector_2" d="M19.0625 16.875C23.1701 16.875 26.5 13.5451 26.5 9.4375C26.5 5.32988 23.1701 2 19.0625 2C14.9549 2 11.625 5.32988 11.625 9.4375C11.625 13.5451 14.9549 16.875 19.0625 16.875Z" stroke="#D69B3C" stroke-width="4"/>
</g>
</svg>
