<?xml version="1.0" encoding="UTF-8"?>
<svg id="Layer_2" data-name="Layer 2" xmlns="http://www.w3.org/2000/svg" viewBox="0 0 900.2 1850.19">
  <defs>
    <style>
      .cls-1 {
        fill: #070707;
      }

      .cls-2 {
        fill: #e2dfdc;
      }

      .cls-3 {
        fill: #351a04;
      }

      .cls-4 {
        fill: #141313;
      }

      .cls-5 {
        fill: #2e7206;
      }

      .cls-6 {
        fill: #63200b;
      }
    </style>
  </defs>
  <path class="cls-3" d="M547.87,1591.26v203.5c6.96,26.1,30.95,44.08,57.51,43.41,25.5-.65,47.88-18.37,54.54-43.41,38.64-119.72,77.29-239.43,115.93-359.15h-210.67l-17.3,155.65Z"/>
  <path class="cls-6" d="M291.66,1510.57h158.65l-181.52,299.86c-13.75,32.43-46.05,46.11-68.02,36.97-20.44-8.51-25.79-34.22-26.32-36.97,12.6-99.95,25.19-199.91,37.79-299.86h79.42Z"/>
  <path class="cls-6" d="M391.95,291.09c98.42-21.09,181.29,33.92,202.13,47.76,108.75,72.2,137.91,192.95,145.82,227.98,39.78,176.14-69.62,221.17-35.94,370.72,37.82,167.92,191.85,182.3,196.14,324.51,3.93,130.27-122.03,227.91-149.93,249.54-142.19,110.22-357.23,126.18-512.44,39.02C-42.52,1393.24-.19,971.18,5.65,912.9c15.09-150.47,73.92-268.04,118.1-356.34,33.5-66.96,73.13-131.04,138.64-188.95,38.01-33.61,73.91-64.58,129.57-76.51Z"/>
  <circle class="cls-2" cx="414.88" cy="678.25" r="102.18"/>
  <ellipse class="cls-2" cx="690.61" cy="726.51" rx="68.8" ry="102.18"/>
  <ellipse class="cls-4" cx="375.34" cy="674.65" rx="60.59" ry="73.94"/>
  <path class="cls-4" d="M711.15,711.11c-1.74,30.17-27.44,60.87-52.37,59.05-14.11-1.03-24.07-12.19-26.7-15.4-11.31-13.79-10.16-30.31-9.24-43.64.55-7.97,1.73-22.47,11.3-37.48,4.38-6.88,16.61-26.07,32.86-26.7,22.11-.86,45.97,32.85,44.16,64.18Z"/>
  <path class="cls-1" d="M670.62,574.33c1.53-.28,3.06-.52,4.6-.73l-2.39.32c9.22-1.22,18.55-1.16,27.76.06l-2.39-.32c10.05,1.37,19.88,4.1,29.22,8.04l-2.15-.91c9.13,3.88,17.74,8.89,25.6,14.93l-1.82-1.41c7.45,5.75,14.17,12.4,19.93,19.85l-1.41-1.82c3.78,4.92,7.12,10.15,9.95,15.67,2.16,4.19,8.38,5.76,12.31,3.23,4.28-2.76,5.54-7.83,3.23-12.31-9-17.51-22.92-32.2-39.21-43.13-16.44-11.03-35.42-17.72-55.04-20.03-11.01-1.29-22.08-.76-32.98,1.21-2.1.38-4.34,2.36-5.38,4.14-1.13,1.93-1.61,4.77-.91,6.94s2.05,4.28,4.14,5.38c2.25,1.19,4.43,1.36,6.94.91h0Z"/>
  <path class="cls-1" d="M527.68,535.38c-16.12-7.49-32.8-13.86-49.97-18.48-16-4.3-32.45-7.1-48.97-8.26s-31.61-.42-47.32,1.72c-14.73,2.01-29.24,5.55-43.24,10.57-14.78,5.3-29.06,12.05-42.5,20.17-1.62.98-3.23,1.98-4.83,2.99-1.96,1.24-3.51,3.11-4.14,5.38s-.33,5.02.91,6.94c2.56,3.97,8.06,5.93,12.31,3.23,10.87-6.9,22.27-12.94,34.13-17.95l-2.15.91c13.53-5.68,27.61-10.02,42.01-12.84,4.14-.81,8.3-1.49,12.48-2.06l-2.39.32c15.31-2.05,30.81-2.44,46.2-1.26,4.47.34,8.94.82,13.39,1.42l-2.39-.32c18.22,2.47,36.11,7.02,53.4,13.22,5.21,1.87,10.37,3.89,15.47,6.04l-2.15-.91c3.58,1.51,7.14,3.09,10.66,4.73,2.24,1.04,4.46,1.59,6.94.91,2.09-.57,4.35-2.19,5.38-4.14,1.1-2.09,1.66-4.62.91-6.94-.68-2.11-2.04-4.41-4.14-5.38h0Z"/>
  <path class="cls-1" d="M308.38,818.46c4.6,12.77,11.52,24.43,20.23,34.83s18.83,19.02,29.96,26.35c11.6,7.65,24.27,13.59,37.43,18.03,15.31,5.16,31.24,8.19,47.28,9.88s31.92,1.94,47.89,1.42c1.99-.07,3.98-.14,5.98-.23,2.35-.1,4.61-1.99,4.5-4.5-.11-2.35-1.98-4.61-4.5-4.5-15.66.7-31.36.71-46.99-.55-3.9-.31-7.79-.71-11.67-1.19-.46-.06-.91-.11-1.37-.17-.23-.03-.46-.06-.68-.09.1.01.59.08.06,0-1.06-.15-2.12-.3-3.18-.46-1.89-.29-3.77-.59-5.66-.92-7.66-1.35-15.26-3.09-22.72-5.3-3.73-1.1-7.44-2.33-11.09-3.67-1.73-.63-3.45-1.29-5.15-1.99-.35-.14-.7-.29-1.05-.43-.17-.07-.35-.15-.52-.22.05.02.68.29.2.09-.75-.32-1.51-.65-2.26-.98-5.9-2.62-11.63-5.61-17.15-8.95-2.76-1.67-5.47-3.43-8.11-5.28-1.35-.94-2.68-1.91-3.99-2.89-.3-.23-.6-.46-.91-.69-.41-.31.11.09.16.13-.15-.12-.3-.23-.45-.35-.65-.51-1.29-1.02-1.93-1.53-4.98-4.04-9.68-8.42-14.01-13.14-2.16-2.35-4.19-4.8-6.18-7.29-.32-.4.09.13.13.17-.15-.2-.3-.4-.45-.59-.23-.3-.45-.6-.67-.9-.48-.65-.96-1.3-1.43-1.96-.9-1.27-1.78-2.56-2.63-3.86-1.73-2.66-3.35-5.4-4.84-8.2-.76-1.43-1.49-2.88-2.18-4.35-.32-.68-.63-1.36-.94-2.04-.15-.34-.3-.69-.45-1.03-.07-.17-.15-.34-.22-.52.16.37.19.47.02.04-.62-1.51-1.21-3.03-1.76-4.56-.8-2.21-3.1-3.93-5.54-3.14-2.17.7-4,3.16-3.14,5.54h0Z"/>
  <path class="cls-5" d="M453.01,341.9c4.72-21.33,9.13-43.88,3.99-65.56-2.6-10.96-8.02-20.97-15.55-29.31-7.01-7.77-15.83-13.93-24.85-19.14s-18.54-9.73-28.06-14c-10.55-4.73-21.29-9.09-32.22-12.86-21.26-7.34-43.32-12.44-65.76-14.31-21.93-1.83-44.39-.12-65.56,6.05-2.51.73-5,1.53-7.47,2.39-2.23.77-4.16,2.05-5.38,4.14-1.13,1.93-1.61,4.77-.91,6.94,1.42,4.39,6.31,7.94,11.07,6.29,9.95-3.45,20.22-5.86,30.66-7.27l-2.39.32c16.85-2.25,33.94-1.9,50.78.33l-2.39-.32c19.97,2.69,39.52,7.97,58.42,14.89,5.42,1.98,10.78,4.11,16.1,6.34l-2.15-.91c13.52,5.71,27.1,11.9,39.63,19.58,3.35,2.05,6.6,4.25,9.72,6.65l-1.82-1.41c4.77,3.7,9.17,7.86,12.87,12.64l-1.41-1.82c2.86,3.74,5.24,7.8,7.09,12.13l-.91-2.15c2.2,5.24,3.6,10.75,4.37,16.37l-.32-2.39c1.27,9.66.74,19.44-.55,29.06l.32-2.39c-1.14,8.39-2.86,16.68-4.69,24.94-.52,2.35-.33,4.82.91,6.94,1.09,1.87,3.23,3.65,5.38,4.14,4.55,1.04,9.98-1.37,11.07-6.29h0Z"/>
  <path class="cls-5" d="M262.71,125.35c-7.4,28.47-22.42,86.26-45.84,87.03-26.13.86-46.58-69.71-50.14-82.02-7.12-24.57-13.89-47.95-5.01-75.21C168,35.85,186.97-.25,215.44,0c27.14.24,45.34,33.38,51.57,51.57,8.29,24.2,3.23,44.79-4.3,73.78Z"/>
  <path class="cls-5" d="M183.03,277.86c19.3-22.2,58.47-67.26,45.86-87.02-14.06-22.04-83.84,1-96,5.02-24.29,8.02-47.4,15.65-64.87,38.39-12.37,16.1-31.42,52.16-15.12,75.5,15.55,22.25,53.17,18.53,71.7,13.38,24.65-6.85,38.78-22.66,58.42-45.26Z"/>
  <path class="cls-3" d="M315.23,655.59l201.83,22.66c.02-8.57-.93-38.93-23.62-66.24-23.91-28.78-55.86-34.76-67.46-36.23-9.93-1.25-45.43-5.14-76.31,19.8-27.19,21.96-33.12,52.01-34.44,60.01Z"/>
  <path class="cls-3" d="M626.58,689.05c.84-6.72,4.98-33.36,28.09-51.37,5.51-4.29,20.25-15.78,40.05-14.38,25.3,1.79,40.5,23.32,47.24,32.86,15.54,22.01,16.82,45.19,16.72,55.35-44.03-7.49-88.07-14.98-132.1-22.47Z"/>
</svg>