<?xml version="1.0" encoding="UTF-8"?>
<svg id="Layer_7" data-name="Layer 7" xmlns="http://www.w3.org/2000/svg" viewBox="0 0 4485 4665.01">
  <defs>
    <style>
      .cls-1, .cls-2, .cls-3, .cls-4, .cls-5, .cls-6, .cls-7, .cls-8, .cls-9, .cls-10, .cls-11, .cls-12, .cls-13, .cls-14, .cls-15, .cls-16 {
        stroke: #000;
        stroke-miterlimit: 10;
      }

      .cls-1, .cls-2, .cls-3, .cls-5, .cls-10, .cls-14 {
        stroke-width: 2px;
      }

      .cls-1, .cls-17 {
        fill: #9d9e9e;
      }

      .cls-2 {
        fill: #eae9e5;
      }

      .cls-3, .cls-18 {
        fill: #afaeac;
      }

      .cls-4, .cls-19 {
        fill: #939393;
      }

      .cls-4, .cls-7, .cls-8, .cls-11, .cls-12, .cls-13, .cls-16 {
        stroke-width: 3px;
      }

      .cls-20 {
        fill: #fafdff;
      }

      .cls-21 {
        fill: #efefef;
      }

      .cls-22, .cls-6 {
        fill: #f4f4f4;
      }

      .cls-5, .cls-23, .cls-16 {
        fill: #bcbcbc;
      }

      .cls-7 {
        fill: #a09f9f;
      }

      .cls-24 {
        fill: #d8d8d8;
      }

      .cls-8 {
        fill: #d8d8d6;
      }

      .cls-9 {
        fill: #e5e5e5;
      }

      .cls-25 {
        fill: #b7b7b7;
      }

      .cls-26 {
        fill: #fff;
      }

      .cls-10, .cls-27 {
        fill: #b2b2b2;
      }

      .cls-11 {
        fill: #d6d8d8;
      }

      .cls-28 {
        fill: #898785;
      }

      .cls-29 {
        fill: #c6c4c1;
      }

      .cls-12 {
        fill: #919191;
      }

      .cls-13 {
        fill: #cecece;
      }

      .cls-14 {
        fill: #f7f7f7;
      }

      .cls-30 {
        fill: #9e9e9e;
      }

      .cls-15 {
        fill: #c4c3c2;
        stroke-width: 4px;
      }

      .cls-31 {
        fill: #686868;
      }
    </style>
  </defs>
  <rect class="cls-20" x="1393" y="347" width="1784" height="2307"/>
  <path class="cls-20" d="M3372.08,2661.93c-65.03-2.64-130.06-5.28-195.08-7.93V347c65-10.14,130-20.27,195-30.41"/>
  <path class="cls-20" d="M1114,2665.56c93-3.78,186-7.56,279-11.34V347.22c-93-14.5-186-29-279-43.5"/>
  <rect class="cls-20" x="1273" y="2654" width="1904" height="566"/>
  <rect class="cls-26" x="1103" y="408" width="2269" height="2187"/>
  <g>
    <rect class="cls-29" x="1498" y="628" width="1479" height="348"/>
    <rect class="cls-29" x="1504" y="1074" width="1479" height="348"/>
    <rect class="cls-29" x="1504" y="1539" width="1479" height="403"/>
  </g>
  <polygon class="cls-25" points="1372 464 1498 628 2977 628 3103 464 1372 464"/>
  <polygon class="cls-8" points="1504 1942 1406.14 2006.89 1406.14 2048.08 3070.42 2040.61 3070.42 2003.7 2983 1942 1504 1942"/>
  <polygon class="cls-26" points="1348 452 3121 454 3121 465.02 1348 464 1348 452"/>
  <polygon class="cls-11" points="1348 410.27 3121 407.85 3121 454 1348 452 1348 410.27"/>
  <path class="cls-16" d="M1114,291.54l193,32.46s104-9,172,14l207.68,9v43.36l41.32,1.64v17.75l-380,.52v64.45l-234-32.23v-138.78"/>
  <path class="cls-16" d="M3196,332c-88-40-195.13,1-195.13,1h-213.87c-19,14-17,59-17,59l-34.02.26v16.11l385.02-.52v71.98l251-36.37v-166.32l-176,54.86Z"/>
  <path class="cls-23" d="M3372,514.41l-186,21.59s-71,16-55,229c80.33-10.33,160.67-20.67,241-31v-219.59Z"/>
  <polygon class="cls-5" points="3146 838 3250.33 865.05 3250.33 1495 3146 1501.51 3146 838"/>
  <path class="cls-30" d="M3250.33,865.05c40.56-4.02,81.12-8.03,121.67-12.05v642h-121.67v-629.95Z"/>
  <polygon class="cls-27" points="3146 838 3372 811.67 3372 853 3250.33 865.05 3146 838"/>
  <path class="cls-10" d="M3128,1554h244v131c-82.33-.33-164.67-.67-247-1-3.28-15.84-5.96-35.46-6-58-.05-28.96,4.27-53.49,9-72Z"/>
  <polygon class="cls-17" points="3250.33 1554 3250.33 1648.41 3125 1684 3372 1685 3372 1554 3250.33 1554"/>
  <rect class="cls-1" x="3135" y="1741" width="127.91" height="556.53"/>
  <polygon class="cls-28" points="3262.91 1741 3372 1741 3372 2302.28 3262.91 2297.53 3262.91 1741"/>
  <path class="cls-25" d="M3135,2297.53s-53,32.47-21,210.47l258,35.18v-240.9l-109.09-4.75h-127.91Z"/>
  <path class="cls-23" d="M1102.59,522.1l186,21.59s71,16,55,229c-80.33-10.33-160.67-20.67-241-31,0-73.2,0-146.39,0-219.59Z"/>
  <polygon class="cls-5" points="1328.59 845.69 1224.26 872.74 1224.26 1502.69 1328.59 1509.2 1328.59 845.69"/>
  <path class="cls-30" d="M1224.26,872.74c-40.56-4.02-81.12-8.03-121.67-12.05v642s121.67,0,121.67,0v-629.95Z"/>
  <polygon class="cls-27" points="1328.59 845.69 1102.59 819.36 1102.59 860.69 1224.26 872.74 1328.59 845.69"/>
  <path class="cls-10" d="M1346.59,1561.69h-244c0,43.67,0,87.33,0,131,82.33-.33,164.67-.67,247-1,3.28-15.84,5.96-35.46,6-58,.05-28.96-4.27-53.49-9-72Z"/>
  <polygon class="cls-17" points="1224.26 1561.69 1224.26 1656.1 1349.59 1691.69 1102.59 1692.69 1102.59 1561.69 1224.26 1561.69"/>
  <rect class="cls-1" x="1211.68" y="1748.69" width="127.91" height="556.53"/>
  <polygon class="cls-28" points="1211.68 1748.69 1102.59 1748.69 1102.59 2309.97 1211.68 2305.22 1211.68 1748.69"/>
  <path class="cls-25" d="M1339.59,2305.22s53,32.47,21,210.47l-258,35.18v-240.9s109.09-4.75,109.09-4.75h127.91Z"/>
  <polygon class="cls-4" points="3103.73 2554.72 3372 2585.52 3372 2635.26 3103.73 2606.84 3103.73 2554.72"/>
  <polygon class="cls-4" points="1114 2638.96 1353 2608 1370.86 2564.08 1114 2592.71 1114 2638.96"/>
  <polygon class="cls-7" points="1370.86 2564.08 3103.73 2554.72 3103.73 2606.84 3177 2614.6 3177 2654 1291.77 2638.96 1291.77 2615.93 1353 2608 1370.86 2564.08"/>
  <path class="cls-6" d="M3070.42,2040.61l-27.42.39,3,455c-536.3,1.96-1072.61,3.91-1608.91,5.87l-6.65-453.9-24.3.11v494.39l1669.86-12.03-5.58-489.84Z"/>
  <polygon class="cls-31" points="1291.77 2638.96 1273 2659.1 3193 2664 3177 2644.79 1291.77 2638.96"/>
  <polygon class="cls-15" points="1273 2659.1 1273 3220 3193 3198.36 3193 2664 1273 2659.1"/>
  <path class="cls-19" d="M1393.31,2750.64s5,45.18,30,68.18c0,0,1188,38,1606.5,0,0,0,37.5-14.64,46.5-64.32-295.67,7.32-591.34,10.43-887,9.32-265.36-1-530.69-5.39-796-13.18Z"/>
  <path class="cls-21" d="M1393,2741.82s5,45.18,30,68.18c0,0,1188,38,1606.5,0,0,0,37.5-14.64,46.5-64.32-295.67,7.32-591.34,10.43-887,9.32-265.36-1-530.69-5.39-796-13.18Z"/>
  <path class="cls-22" d="M2259,2498l-.14-453.75"/>
  <polygon class="cls-26" points="1815 575 1836.8 628 2634.22 628 2667.94 575 1815 575"/>
  <polygon class="cls-12" points="1782 527 1792 563 2695 563 2713 530 1782 527"/>
  <polygon class="cls-13" points="1792 563 1827.91 628 1836.8 628 1815 575 2667.94 575 2634.22 628 2657.33 628 2695 563 1792 563"/>
  <g>
    <polygon class="cls-14" points="1504 1422 1405 1499.87 1406.14 1539 3070.42 1539 3070.42 1501.51 2983 1422 1504 1422"/>
    <polygon class="cls-2" points="1504 1422 1405 1499.87 3070.42 1501.51 2983 1422 1504 1422"/>
  </g>
  <polygon class="cls-9" points="2288.15 2097 2996.38 2097 2996.38 2118.44 2288.15 2113.38 2288.15 2097"/>
  <polygon class="cls-9" points="1471.66 2097.19 2179.89 2097.19 2179.89 2118.63 1471.66 2113.57 1471.66 2097.19"/>
  <polyline class="cls-24" points="3193 2664 3193 2670.55 1273 2664.61 1273 2659.1 3193 2664"/>
  <rect class="cls-20" x="1270.93" y="3208.44" width="1904" height="566"/>
  <polygon class="cls-31" points="1281.78 3193.4 1262.93 3213.54 3191 3218.44 3174.93 3199.24 1281.78 3193.4"/>
  <path class="cls-15" d="M1262.93,3213.54v1449.46c644.36-4.67,1288.71-9.33,1933.07-14-3-478.33-6-956.67-9-1435-641.36-.15-1282.71-.3-1924.07-.46Z"/>
  <path class="cls-19" d="M1391.25,3305.08s5,45.18,30,68.18c0,0,1188,38,1606.5,0,0,0,37.5-14.64,46.5-64.32-295.67,7.32-591.34,10.43-887,9.32-265.36-1-530.69-5.39-796-13.18Z"/>
  <path class="cls-21" d="M1383.44,3296.27s5.02,45.18,30.13,68.18c0,0,1192.99,38,1613.25,0,0,0,37.66-14.64,46.7-64.32-296.91,7.32-593.82,10.43-890.73,9.32-266.47-1-532.92-5.39-799.34-13.18Z"/>
  <polyline class="cls-24" points="3184.93 3208.44 3184.93 3214.99 1264.93 3209.05 1264.93 3203.54 3184.93 3208.44"/>
  <polygon class="cls-18" points="3058 1241 2994.5 1432.46 3070.42 1501.51 3086.35 1459.2 3076 1222.67 3058 1241"/>
  <polygon class="cls-18" points="3058.02 1539 3070.42 1539 3082.41 1539 3079 1670 3079 1830 3070.21 1936.72 3058.02 1539"/>
  <path class="cls-29" d="M1498,861l6,297.58,1479,11.18-6-286.15c-493-7.53-986-15.07-1479-22.6Z"/>
  <polygon class="cls-3" points="1504 1422 1504 1074 1501.87 1072.62 1498.26 931.5 1498 931.43 1498 628 1372 464 1393.18 2012.94 1406.14 2006.89 1504 1952.61 1504 1539 1406.14 1539 1406.14 1498.97 1504 1422"/>
  <polygon class="cls-3" points="2977 628 2977 976 2978.94 975.98 2981.51 1098.77 2983 1098.77 2983 1422 3069.5 1501.51 3069.5 1539 2983 1539 2983 1942 3070.42 2003.7 3070.42 1974.43 3070.53 1974.54 3070.42 2003.7 3083.89 2021.64 3102.28 514.41 3103 464 2977 628"/>
  <g>
    <path class="cls-14" d="M1508,986c-33.16,12.71-66.33,25.42-99.49,38.13l1.14,39.13h1664.27v-37.49c-28.98-13.26-57.95-26.51-86.93-39.77h-1479Z"/>
    <polygon class="cls-2" points="1507.51 986 1408.51 1024.95 3073.93 1025.77 2986.51 986 1507.51 986"/>
  </g>
</svg>