<svg width="21" height="20" viewBox="0 0 21 20" fill="none" xmlns="http://www.w3.org/2000/svg">
<path d="M12.4021 2.23607C11.8034 0.393449 9.19659 0.393442 8.59789 2.23606L7.55482 5.4463C7.42094 5.85833 7.03699 6.13729 6.60376 6.13729H3.22832C1.29087 6.13729 0.485316 8.61652 2.05275 9.75532L4.78354 11.7394C5.13403 11.994 5.28068 12.4454 5.14681 12.8574L4.10374 16.0676C3.50504 17.9102 5.61399 19.4425 7.18142 18.3037L9.91222 16.3197C10.2627 16.065 10.7373 16.065 11.0878 16.3197L13.8186 18.3037C15.386 19.4425 17.495 17.9103 16.8963 16.0676L15.8532 12.8574C15.7193 12.4454 15.866 11.994 16.2165 11.7394L18.9473 9.75532C20.5147 8.61652 19.7091 6.13729 17.7717 6.13729H14.3962C13.963 6.13729 13.5791 5.85833 13.4452 5.4463L12.4021 2.23607Z" fill="#F9CF0A" stroke="black"/>
</svg>
